<?xml version="1.0" encoding="UTF-8"?>
<!DOCTYPE svg PUBLIC "-//W3C//DTD SVG 1.1//EN" "http://www.w3.org/Graphics/SVG/1.1/DTD/svg11.dtd">
<!-- Creator: CorelDRAW X5 -->
<svg xmlns="http://www.w3.org/2000/svg" xml:space="preserve" width="49.1002mm" height="27.3344mm" style="shape-rendering:geometricPrecision; text-rendering:geometricPrecision; image-rendering:optimizeQuality; fill-rule:evenodd; clip-rule:evenodd"
viewBox="0 0 1606 894"
 xmlns:xlink="http://www.w3.org/1999/xlink">
 <defs>
  <style type="text/css">
   <![CDATA[
    .str0 {stroke:#2B2A29;stroke-width:2.49248}
    .fil0 {fill:#FFED00}
   ]]>
  </style>
 </defs>
 <g id="Réteg_x0020_1">
  <metadata id="CorelCorpID_0Corel-Layer"/>
  <path class="fil0 str0" d="M472 574c-13,72 -38,144 -83,187 -63,61 -149,18 -195,-9 -81,-47 -160,-129 -179,-200 -23,-85 -22,-182 27,-265 0,0 0,0 0,0 60,-109 173,-156 237,-186 53,-25 105,-18 142,31 31,41 42,100 51,156 2,12 -6,24 -18,26 -31,6 -57,10 -88,16 -10,2 -24,-1 -24,-11 0,-94 -46,-85 -123,-31 -111,78 -112,303 58,355 45,14 59,-24 67,-102 1,-12 15,-18 27,-15 29,7 54,13 84,21 12,3 19,14 17,26zm74 -551c56,-10 117,-16 171,-21 78,-6 124,28 161,103 50,103 62,227 62,343 0,129 -22,356 -137,431 -45,30 -193,5 -262,-8 -11,-2 -19,-11 -19,-22 0,-133 2,-276 3,-408 0,-128 2,-313 3,-396 0,-11 8,-20 19,-22zm119 174l-1 495c0,14 11,26 25,26 60,2 76,-21 100,-99 17,-53 21,-334 -17,-402 -16,-30 -50,-47 -83,-46 -14,1 -25,12 -25,26zm507 69c39,-50 68,-105 103,-158 6,-10 18,-13 29,-8 44,21 79,41 118,68 6,4 9,10 10,17 1,7 -2,13 -7,18 -57,56 -96,101 -148,168 -5,7 -6,16 -3,24 56,117 97,195 162,297 7,10 4,24 -6,31 -41,28 -77,49 -118,67 -6,3 -12,3 -18,1 -6,-2 -10,-6 -13,-12 -31,-69 -61,-140 -91,-210 -4,-8 -11,-13 -20,-14 -9,0 -17,4 -21,12 -4,7 -7,13 -11,20 -2,4 -3,7 -3,11l0 236c0,11 -7,20 -18,22 -32,7 -68,15 -101,21 -7,1 -13,0 -19,-5 -5,-5 -8,-11 -8,-18l1 -814c0,-7 3,-13 8,-17 5,-5 12,-6 19,-5 34,6 69,13 102,21 10,3 17,12 17,22l-1 192c0,9 5,16 13,19 8,3 17,0 22,-7zm368 58c36,0 65,55 65,122 0,68 -29,122 -65,122 -36,0 -65,-55 -65,-122 0,-68 29,-122 65,-122z"/>
 </g>
</svg>
